<?xml version="1.0" encoding="utf-8" ?>
<svg xmlns="http://www.w3.org/2000/svg" xmlns:xlink="http://www.w3.org/1999/xlink" width="920" height="544">
	<path fill="#101010" transform="scale(1.34961 1.0625)" d="M237.465 155.835C235.385 155.865 233.738 155.895 231.919 154.711C224.948 150.175 229.163 145.725 231.682 140.265C241.308 119.402 227.67 105.785 224.186 88.306C220.697 70.8027 228.047 54.1097 239.796 41.5652C243.13 38.0064 245.98 34.6312 250.987 33.6988C255.815 34.0491 261.477 38.2278 258.65 43.6676C257.103 46.6434 254.051 49.0496 251.756 51.4622C242.097 61.6172 235.722 75.3442 240.419 89.4919C242.686 96.3188 246.842 102.258 248.88 109.275C252.039 120.147 251.23 152.026 237.465 155.835Z"/>
	<path fill="#101010" transform="scale(1.34961 1.0625)" d="M285.193 155.833L280.638 155.734C271.293 150.671 277.218 144.829 280.07 137.827C289.766 114.018 275.104 104.837 271.734 84.7318C269.018 68.5281 280.427 40.0906 296.132 33.6405C298.072 33.5122 299.64 33.5219 301.409 34.4995C311.589 40.1243 300.763 48.5502 297.066 53.0753C288.51 63.5486 283.65 76.9883 289.288 90.1371C291.84 96.0903 295.13 101.605 296.934 107.877C300.143 119.027 298.736 152.113 285.193 155.833Z"/>
	<path fill="#101010" transform="scale(1.34961 1.0625)" d="M333.35 155.814C328.755 155.887 325.109 154.371 323.563 149.572C321.526 143.254 338.514 130.251 328.554 106.023C320.441 86.2883 313.788 75.5164 325.222 53.0092C328.863 45.8437 335.289 36.2253 343.171 33.6712C344.657 33.5825 345.882 33.4985 347.274 34.1527C357.235 38.8351 350.422 45.3443 346.458 49.6798C329.148 68.609 334.33 79.6645 342.543 98.7022C344.168 102.471 345.092 106.224 346.41 110.064L346.603 110.643C349.194 120.139 344.822 152.766 333.35 155.814Z"/>
	<path fill="#101010" transform="scale(1.34961 1.0625)" d="M454.294 469.696L439.277 472.151C429.67 474.202 418.96 473.369 409.215 473.373L150.331 473.38C115.926 473.351 79.2646 468.442 52.3539 444.827C46.5297 439.716 34.3983 427.389 34.1935 419.511C33.9453 409.964 48.0743 412.105 53.8945 412.112L169.025 412.111C167.483 411.33 166.964 410.284 165.76 409.176L158.029 402.079C101.553 347.696 77.4414 279.266 76.3685 200.912C76.1052 181.683 125.946 179.382 139.27 178.019L177.16 174.879C180.258 174.686 183.344 174.03 186.431 173.885L217.629 173.76L386.452 173.887C389.275 173.981 391.892 174.63 394.665 174.872C401.39 175.458 409.587 175.709 416.636 176.123L463.214 180.414C474.527 181.938 496.337 184.439 505.985 191.159C511.553 195.037 505.706 194.676 515.053 192.967C549.169 186.729 582.218 195.985 600.347 228.225C609.924 245.256 611.993 266.413 606.677 285.154C592.574 334.873 530.3 360.018 484.359 369.752L450.115 374.802C449.221 374.854 447.908 374.742 447.096 374.973C445.42 375.45 425.885 396.555 422.798 399.337L411.983 408.541C410.719 409.672 410.23 410.98 408.651 411.83L512.433 412.132C515.909 412.127 519.58 411.879 523.039 412.169C534.119 413.095 528.138 425.099 524.648 430.308C508.561 454.317 481.358 464.333 454.294 469.696ZM217.6 189.05L206.702 189.118C205.289 189.128 203.511 188.925 202.157 189.335L201.847 204.462L461.961 201.041L474.926 199.656C477.019 199.419 479.257 199.398 481.298 198.914C477.719 197.813 473.687 197.538 469.978 196.997L445.633 193.831L390.785 190.283C387.754 190.107 384.825 189.326 381.705 189.234L217.6 189.05ZM184.755 190.241C155.827 190.492 128.016 195.167 100.074 199.018L108.209 200.36L186.563 204.966L186.709 190.585C186.073 190.038 185.576 190.227 184.755 190.241ZM528.574 206.53C524.683 206.947 512.381 208.719 509.017 210.818L509.079 224.428C510.41 223.534 512.311 223.486 513.849 223.115C549.974 214.383 583.801 235.953 575.017 274.055C566.449 311.218 510.61 332.624 477.412 338.646L472.719 339.38C471.221 339.561 471.486 339.293 470.849 340.656L468.671 345.044C466.651 348.668 464.103 352.049 461.632 355.376L459.683 358.246C496.573 356.274 552.965 333.745 576.827 307.136C614.835 264.75 584.921 202.661 529.2 206.484L528.574 206.53ZM492.856 212.201L433.878 218.456L414.55 219.002C411.617 219.124 408.733 219.729 405.777 219.832L343.936 219.746L343.919 248.411C347.365 248.495 351.392 248.23 354.706 249.129L355.08 249.225C356.915 249.765 358.8 251.688 360.15 253.018L384.024 279.638C386.392 282.469 385.093 294.101 385.094 297.907L385.088 348.658C385.084 352.798 385.326 357.139 384.891 361.256C383.587 373.598 372.083 373.575 363.314 373.593L315.863 373.617C311.339 373.616 306.541 373.946 302.061 373.453L299.553 372.974C287.376 370.316 287.789 359.004 287.789 348.978L287.835 299.838C287.842 295.404 286.652 283.396 288.948 279.812L289.217 279.403C292.473 274.311 297.356 269.84 301.445 265.375C307.978 258.242 316.88 244.726 328.316 248.004L328.323 219.959L205.57 220.049C204.477 220.085 203.027 219.979 202.021 220.365C201.981 224.341 202.407 229.207 201.244 232.994L210 240.722C225.348 253.836 223.493 248.012 223.496 269.128L223.512 318.455C223.538 328.981 224.165 333.136 211.694 333.501L181.687 333.542C174.852 333.534 159.039 336.365 158.987 325.576L159.143 296.114L159.148 267.233C159.168 246.762 159.53 250.667 176.348 239.109L188.317 230.192L186.71 220.339L144.667 219.096C128.778 218.127 108.101 216.495 92.4817 213.024C94.458 278.794 120.004 344.736 168.333 390.198C174.397 395.902 189.051 409.235 197.041 411.831C198.865 412.424 201.692 412.133 203.626 412.134L376.299 412.095C378.933 411.982 381.808 409.828 384.053 408.506C450.755 369.217 489.465 287.776 493.825 212.557L492.856 212.201ZM528.15 236.167C520.78 236.772 510.867 239.852 506.109 245.878C504.544 247.86 503.349 256.669 502.709 259.506C497.845 281.074 490.088 301.462 481.304 321.701L506.586 314.083C524.794 306.781 549.858 295.168 557.935 276.216C567.282 254.283 551.589 235.032 528.15 236.167ZM192.536 246.163L182.496 253.575C176.07 257.983 174.685 255.769 174.668 263.669L174.667 317.909L190.812 317.99L203.374 318.061C204.743 318.067 206.88 318.376 208.087 317.894L208.081 280.201C208.076 272.92 208.492 265.29 207.649 258.062L207.272 257.851C201.682 254.684 197.559 249.999 192.536 246.163ZM325.568 263.157C320.247 265.286 312.359 277.216 307.995 281.738C306.564 283.221 304.631 283.953 303.402 285.558L303.354 350.975C303.356 353.324 303.129 355.935 303.482 358.252L353.005 358.396L369.392 358.331L369.429 291.357C369.424 284.734 369.653 287.077 365.937 282.977C360.272 276.728 355.183 269.199 348.731 263.774C332.828 277.221 330.437 264.048 325.568 263.157ZM60.7945 427.466L57.4438 428.021C79.5052 455.307 130.405 458.093 162.241 458.108L418.618 458.104C423.828 458.091 429.722 458.211 434.83 457.224L446.443 455.573C460.935 453.206 476.141 449.664 488.871 442.051C494.331 438.708 499.458 435.107 504.153 430.734C505.381 429.59 505.797 428.602 507.299 427.615L60.7945 427.466Z"/>
</svg>
